{
  "accessors": [
    {
      "bufferView": 2,
      "componentType": 5126,
      "count": 5053,
      "max": [
        0.38592299818992615,
        0.3724629878997803,
        0.9770219922065735
      ],
      "min": [
        -0.4518660008907318,
        -0.3586939871311188,
        0.24807700514793396
      ],
      "type": "VEC3"
    },
    {
      "bufferView": 2,
      "byteOffset": 60636,
      "componentType": 5126,
      "count": 5053,
      "max": [
        0.999666154384613,
        0.9988260269165039,
        0.9985299706459045
      ],
      "min": [
        -0.9991730451583862,
        -0.9994003772735596,
        -0.9996275305747986
      ],
      "type": "VEC3"
    },
    {
      "bufferView": 1,
      "componentType": 5126,
      "count": 5053,
      "max": [
        0.9848380088806152,
        -0.047988999634981155
      ],
      "min": [
        0.015162000432610512,
        -0.9855449795722961
      ],
      "type": "VEC2"
    },
    {
      "bufferView": 0,
      "componentType": 5125,
      "count": 24000,
      "type": "SCALAR"
    },
    {
      "bufferView": 2,
      "byteOffset": 121272,
      "componentType": 5126,
      "count": 571,
      "max": [
        0.4852130115032196,
        0.4866810142993927,
        0.32186099886894226
      ],
      "min": [
        -0.4835900068283081,
        -0.48533400893211365,
        -0.0
      ],
      "type": "VEC3"
    },
    {
      "bufferView": 2,
      "byteOffset": 128124,
      "componentType": 5126,
      "count": 571,
      "max": [
        0.9842387437820435,
        0.9856408834457397,
        0.9999808073043823
      ],
      "min": [
        -0.9880930185317993,
        -0.954456090927124,
        -1.0
      ],
      "type": "VEC3"
    },
    {
      "bufferView": 1,
      "byteOffset": 40424,
      "componentType": 5126,
      "count": 571,
      "max": [
        0.9820029735565186,
        -0.011010999791324139
      ],
      "min": [
        0.015876000747084618,
        -0.9867380261421204
      ],
      "type": "VEC2"
    },
    {
      "bufferView": 0,
      "byteOffset": 96000,
      "componentType": 5125,
      "count": 2766,
      "type": "SCALAR"
    },
    {
      "bufferView": 2,
      "byteOffset": 134976,
      "componentType": 5126,
      "count": 720,
      "max": [
        0.4852130115032196,
        0.4866810142993927,
        0.3451699912548065
      ],
      "min": [
        -0.4860849976539612,
        -0.4940580129623413,
        -0.0
      ],
      "type": "VEC3"
    },
    {
      "bufferView": 2,
      "byteOffset": 143616,
      "componentType": 5126,
      "count": 720,
      "max": [
        0.9965153336524963,
        0.997292160987854,
        0.999847948551178
      ],
      "min": [
        -0.999359130859375,
        -0.9977432489395142,
        -0.9995893836021423
      ],
      "type": "VEC3"
    },
    {
      "bufferView": 1,
      "byteOffset": 44992,
      "componentType": 5126,
      "count": 720,
      "max": [
        -0.018043000251054764,
        -0.01254200004041195
      ],
      "min": [
        -0.9835060238838196,
        -0.9876279830932617
      ],
      "type": "VEC2"
    },
    {
      "bufferView": 0,
      "byteOffset": 107064,
      "componentType": 5125,
      "count": 3114,
      "type": "SCALAR"
    }
  ],
  "asset": {
    "extras": {
      "author": "Forsaken AR Official (https://sketchfab.com/FNAF_AR_Official)",
      "license": "CC-BY-4.0 (http://creativecommons.org/licenses/by/4.0/)",
      "source": "https://sketchfab.com/3d-models/mobile-pokemon-duel-249-lugia-56618ffd517a47cf9a1de13676aaa99b",
      "title": "Mobile - Pokemon Duel - 249 - Lugia"
    },
    "generator": "Sketchfab-16.12.0",
    "version": "2.0"
  },
  "bufferViews": [
    {
      "buffer": 0,
      "byteLength": 119520,
      "name": "floatBufferViews",
      "target": 34963
    },
    {
      "buffer": 0,
      "byteLength": 50752,
      "byteOffset": 119520,
      "byteStride": 8,
      "name": "floatBufferViews",
      "target": 34962
    },
    {
      "buffer": 0,
      "byteLength": 152256,
      "byteOffset": 170272,
      "byteStride": 12,
      "name": "floatBufferViews",
      "target": 34962
    }
  ],
  "buffers": [
    {
      "byteLength": 322528,
      "uri": "scene.bin"
    }
  ],
  "images": [
    {
      "uri": "textures/00006_lugia_dif.png_baseColor.png"
    },
    {
      "uri": "textures/00006_lugia_ground01_dif.png_baseColor.png"
    },
    {
      "uri": "textures/00006_lugia_ground02_dif.png_baseColor.png"
    }
  ],
  "materials": [
    {
      "doubleSided": true,
      "name": "00006_lugia_dif.png",
      "pbrMetallicRoughness": {
        "baseColorTexture": {
          "index": 0
        },
        "metallicFactor": 0.0,
        "roughnessFactor": 0.8434915419926713
      }
    },
    {
      "alphaMode": "BLEND",
      "doubleSided": true,
      "name": "00006_lugia_ground01_dif.png",
      "pbrMetallicRoughness": {
        "baseColorFactor": [
          1.0,
          1.0,
          1.0,
          0.0
        ],
        "baseColorTexture": {
          "index": 1
        },
        "metallicFactor": 0.0,
        "roughnessFactor": 0.8434915419926713
      }
    },
    {
      "alphaMode": "BLEND",
      "doubleSided": true,
      "name": "00006_lugia_ground02_dif.png",
      "pbrMetallicRoughness": {
        "baseColorFactor": [
          1.0,
          1.0,
          1.0,
          0.0
        ],
        "baseColorTexture": {
          "index": 2
        },
        "metallicFactor": 0.0,
        "roughnessFactor": 0.8434915419926713
      }
    }
  ],
  "meshes": [
    {
      "name": "Object_0",
      "primitives": [
        {
          "attributes": {
            "NORMAL": 1,
            "POSITION": 0,
            "TEXCOORD_0": 2
          },
          "indices": 3,
          "material": 0,
          "mode": 4
        }
      ]
    },
    {
      "name": "Object_1",
      "primitives": [
        {
          "attributes": {
            "NORMAL": 5,
            "POSITION": 4,
            "TEXCOORD_0": 6
          },
          "indices": 7,
          "material": 1,
          "mode": 4
        }
      ]
    },
    {
      "name": "Object_2",
      "primitives": [
        {
          "attributes": {
            "NORMAL": 9,
            "POSITION": 8,
            "TEXCOORD_0": 10
          },
          "indices": 11,
          "material": 2,
          "mode": 4
        }
      ]
    }
  ],
  "nodes": [
    {
      "children": [
        1
      ],
      "matrix": [
        1.0,
        0.0,
        0.0,
        0.0,
        0.0,
        2.220446049250313e-16,
        -1.0,
        0.0,
        0.0,
        1.0,
        2.220446049250313e-16,
        0.0,
        0.0,
        0.0,
        0.0,
        1.0
      ],
      "name": "Sketchfab_model"
    },
    {
      "children": [
        2,
        3,
        4
      ],
      "name": "Lugia.obj.cleaner.materialmerger.gles"
    },
    {
      "mesh": 0,
      "name": "Object_2"
    },
    {
      "mesh": 1,
      "name": "Object_3"
    },
    {
      "mesh": 2,
      "name": "Object_4"
    }
  ],
  "samplers": [
    {
      "magFilter": 9729,
      "minFilter": 9987,
      "wrapS": 10497,
      "wrapT": 10497
    }
  ],
  "scene": 0,
  "scenes": [
    {
      "name": "Sketchfab_Scene",
      "nodes": [
        0
      ]
    }
  ],
  "textures": [
    {
      "sampler": 0,
      "source": 0
    },
    {
      "sampler": 0,
      "source": 1
    },
    {
      "sampler": 0,
      "source": 2
    }
  ]
}
