{
  "accessors": [
    {
      "bufferView": 2,
      "componentType": 5126,
      "count": 3962,
      "max": [
        94.60828399658203,
        45.84978485107422,
        282.9847717285156
      ],
      "min": [
        -100.68270111083984,
        -69.36856842041016,
        0.551397979259491
      ],
      "type": "VEC3"
    },
    {
      "bufferView": 2,
      "byteOffset": 47544,
      "componentType": 5126,
      "count": 3962,
      "max": [
        0.9996506571769714,
        0.9995226263999939,
        0.9999987483024597
      ],
      "min": [
        -0.9998723864555359,
        -0.9999775290489197,
        -0.9999988675117493
      ],
      "type": "VEC3"
    },
    {
      "bufferView": 1,
      "componentType": 5126,
      "count": 3962,
      "max": [
        0.9980469942092896,
        0.9994509816169739
      ],
      "min": [
        0.0007319999858736992,
        0.0010679999832063913
      ],
      "type": "VEC2"
    },
    {
      "bufferView": 0,
      "componentType": 5125,
      "count": 9696,
      "type": "SCALAR"
    }
  ],
  "asset": {
    "extras": {
      "author": "Tigerar1 (https://sketchfab.com/allanromanreyes)",
      "license": "SKETCHFAB Standard (https://sketchfab.com/licenses)",
      "source": "https://sketchfab.com/3d-models/rx-93-nu-gundam-3a34b608d56d4ce3a8a15aa5f82c1cf7",
      "title": "RX-93 Nu Gundam"
    },
    "generator": "Sketchfab-15.61.0",
    "version": "2.0"
  },
  "bufferViews": [
    {
      "buffer": 0,
      "byteLength": 38784,
      "name": "floatBufferViews",
      "target": 34963
    },
    {
      "buffer": 0,
      "byteLength": 31696,
      "byteOffset": 38784,
      "byteStride": 8,
      "name": "floatBufferViews",
      "target": 34962
    },
    {
      "buffer": 0,
      "byteLength": 95088,
      "byteOffset": 70480,
      "byteStride": 12,
      "name": "floatBufferViews",
      "target": 34962
    }
  ],
  "buffers": [
    {
      "byteLength": 165568,
      "uri": "scene.bin"
    }
  ],
  "images": [
    {
      "uri": "textures/Material01_baseColor.png"
    }
  ],
  "materials": [
    {
      "doubleSided": true,
      "name": "Material01",
      "pbrMetallicRoughness": {
        "baseColorTexture": {
          "index": 0
        },
        "metallicFactor": 0.0
      }
    }
  ],
  "meshes": [
    {
      "name": "Object_0",
      "primitives": [
        {
          "attributes": {
            "NORMAL": 1,
            "POSITION": 0,
            "TEXCOORD_0": 2
          },
          "indices": 3,
          "material": 0,
          "mode": 4
        }
      ]
    }
  ],
  "nodes": [
    {
      "children": [
        1
      ],
      "matrix": [
        1.0,
        0.0,
        0.0,
        0.0,
        0.0,
        2.220446049250313e-16,
        -1.0,
        0.0,
        0.0,
        1.0,
        2.220446049250313e-16,
        0.0,
        0.0,
        0.0,
        0.0,
        1.0
      ],
      "name": "Sketchfab_model"
    },
    {
      "children": [
        2
      ],
      "name": "RX-93 Nu Gundam - Ren.obj.cleaner.materialmerger.gles"
    },
    {
      "mesh": 0,
      "name": "Object_2"
    }
  ],
  "samplers": [
    {
      "magFilter": 9729,
      "minFilter": 9987,
      "wrapS": 10497,
      "wrapT": 10497
    }
  ],
  "scene": 0,
  "scenes": [
    {
      "name": "Sketchfab_Scene",
      "nodes": [
        0
      ]
    }
  ],
  "textures": [
    {
      "sampler": 0,
      "source": 0
    }
  ]
}
