{
  "accessors": [
    {
      "bufferView": 2,
      "componentType": 5126,
      "count": 3985,
      "max": [
        10.26360034942627,
        21.36240005493164,
        19.801801681518555
      ],
      "min": [
        -9.728099822998047,
        -7.003798961639404,
        -0.008999999612569809
      ],
      "type": "VEC3"
    },
    {
      "bufferView": 2,
      "byteOffset": 47820,
      "componentType": 5126,
      "count": 3985,
      "max": [
        0.9999845027923584,
        0.9988903403282166,
        0.9998517632484436
      ],
      "min": [
        -0.9990077614784241,
        -0.9999703764915466,
        -0.999933123588562
      ],
      "type": "VEC3"
    },
    {
      "bufferView": 1,
      "componentType": 5126,
      "count": 3985,
      "max": [
        0.9839000105857849,
        0.9914000034332275
      ],
      "min": [
        0.008299999870359898,
        0.01269999984651804
      ],
      "type": "VEC2"
    },
    {
      "bufferView": 0,
      "componentType": 5125,
      "count": 18060,
      "type": "SCALAR"
    }
  ],
  "asset": {
    "extras": {
      "author": "LunaEagle (https://sketchfab.com/LunaEagle)",
      "license": "CC-BY-4.0 (http://creativecommons.org/licenses/by/4.0/)",
      "source": "https://sketchfab.com/3d-models/flygon-4093020ebbe04fe182c8d35b78ac3452",
      "title": "Flygon"
    },
    "generator": "Sketchfab-15.24.0",
    "version": "2.0"
  },
  "bufferViews": [
    {
      "buffer": 0,
      "byteLength": 72240,
      "name": "floatBufferViews",
      "target": 34963
    },
    {
      "buffer": 0,
      "byteLength": 31880,
      "byteOffset": 72240,
      "byteStride": 8,
      "name": "floatBufferViews",
      "target": 34962
    },
    {
      "buffer": 0,
      "byteLength": 95640,
      "byteOffset": 104120,
      "byteStride": 12,
      "name": "floatBufferViews",
      "target": 34962
    }
  ],
  "buffers": [
    {
      "byteLength": 199760,
      "uri": "scene.bin"
    }
  ],
  "images": [
    {
      "uri": "textures/48_0_80_237_baseColor.png"
    }
  ],
  "materials": [
    {
      "doubleSided": true,
      "name": "48_0_80_237",
      "pbrMetallicRoughness": {
        "baseColorTexture": {
          "index": 0
        },
        "metallicFactor": 0.0
      }
    }
  ],
  "meshes": [
    {
      "name": "Object_0",
      "primitives": [
        {
          "attributes": {
            "NORMAL": 1,
            "POSITION": 0,
            "TEXCOORD_0": 2
          },
          "indices": 3,
          "material": 0,
          "mode": 4
        }
      ]
    }
  ],
  "nodes": [
    {
      "children": [
        1
      ],
      "matrix": [
        1.0,
        0.0,
        0.0,
        0.0,
        0.0,
        2.220446049250313e-16,
        -1.0,
        0.0,
        0.0,
        1.0,
        2.220446049250313e-16,
        0.0,
        0.0,
        0.0,
        0.0,
        1.0
      ],
      "name": "Sketchfab_model"
    },
    {
      "children": [
        2
      ],
      "name": "flygon.obj.cleaner.materialmerger.gles"
    },
    {
      "mesh": 0,
      "name": "Object_2"
    }
  ],
  "samplers": [
    {
      "magFilter": 9729,
      "minFilter": 9987,
      "wrapS": 10497,
      "wrapT": 10497
    }
  ],
  "scene": 0,
  "scenes": [
    {
      "name": "Sketchfab_Scene",
      "nodes": [
        0
      ]
    }
  ],
  "textures": [
    {
      "sampler": 0,
      "source": 0
    }
  ]
}
