{
  "accessors": [
    {
      "bufferView": 2,
      "componentType": 5126,
      "count": 4635,
      "max": [
        106.17078399658203,
        110.47651672363281,
        275.7097473144531
      ],
      "min": [
        -118.567138671875,
        -85.90249633789063,
        -1.4183759689331055
      ],
      "type": "VEC3"
    },
    {
      "bufferView": 2,
      "byteOffset": 55620,
      "componentType": 5126,
      "count": 4635,
      "max": [
        0.9997397661209106,
        0.999988853931427,
        0.9999439716339111
      ],
      "min": [
        -0.9998066425323486,
        -0.9994021058082581,
        -0.9999361038208008
      ],
      "type": "VEC3"
    },
    {
      "bufferView": 1,
      "componentType": 5126,
      "count": 4635,
      "max": [
        0.9997559785842896,
        0.9957889914512634
      ],
      "min": [
        0.005309999920427799,
        0.00494399992749095
      ],
      "type": "VEC2"
    },
    {
      "bufferView": 0,
      "componentType": 5125,
      "count": 10128,
      "type": "SCALAR"
    }
  ],
  "asset": {
    "extras": {
      "author": "Tigerar1 (https://sketchfab.com/allanromanreyes)",
      "license": "SKETCHFAB Standard (https://sketchfab.com/licenses)",
      "source": "https://sketchfab.com/3d-models/gx-9901-dx-gundam-double-x-3a211ec2ae67484bb29a1e8e9b9811ae",
      "title": "GX-9901-DX Gundam Double-X"
    },
    "generator": "Sketchfab-15.61.0",
    "version": "2.0"
  },
  "bufferViews": [
    {
      "buffer": 0,
      "byteLength": 40512,
      "name": "floatBufferViews",
      "target": 34963
    },
    {
      "buffer": 0,
      "byteLength": 37080,
      "byteOffset": 40512,
      "byteStride": 8,
      "name": "floatBufferViews",
      "target": 34962
    },
    {
      "buffer": 0,
      "byteLength": 111240,
      "byteOffset": 77592,
      "byteStride": 12,
      "name": "floatBufferViews",
      "target": 34962
    }
  ],
  "buffers": [
    {
      "byteLength": 188832,
      "uri": "scene.bin"
    }
  ],
  "images": [
    {
      "uri": "textures/Material01_baseColor.png"
    }
  ],
  "materials": [
    {
      "doubleSided": true,
      "name": "Material01",
      "pbrMetallicRoughness": {
        "baseColorTexture": {
          "index": 0
        },
        "metallicFactor": 0.0
      }
    }
  ],
  "meshes": [
    {
      "name": "Object_0",
      "primitives": [
        {
          "attributes": {
            "NORMAL": 1,
            "POSITION": 0,
            "TEXCOORD_0": 2
          },
          "indices": 3,
          "material": 0,
          "mode": 4
        }
      ]
    }
  ],
  "nodes": [
    {
      "children": [
        1
      ],
      "matrix": [
        1.0,
        0.0,
        0.0,
        0.0,
        0.0,
        2.220446049250313e-16,
        -1.0,
        0.0,
        0.0,
        1.0,
        2.220446049250313e-16,
        0.0,
        0.0,
        0.0,
        0.0,
        1.0
      ],
      "name": "Sketchfab_model"
    },
    {
      "children": [
        2
      ],
      "name": "GX-9901-DX Gundam Double X - Ren.obj.cleaner.materialmerger.gles"
    },
    {
      "mesh": 0,
      "name": "Object_2"
    }
  ],
  "samplers": [
    {
      "magFilter": 9729,
      "minFilter": 9987,
      "wrapS": 10497,
      "wrapT": 10497
    }
  ],
  "scene": 0,
  "scenes": [
    {
      "name": "Sketchfab_Scene",
      "nodes": [
        0
      ]
    }
  ],
  "textures": [
    {
      "sampler": 0,
      "source": 0
    }
  ]
}
