{
  "accessors": [
    {
      "bufferView": 2,
      "componentType": 5126,
      "count": 6,
      "max": [
        4.417610168457031,
        -4.491868019104004,
        7.419833183288574
      ],
      "min": [
        3.4729559421539307,
        -5.222859859466553,
        6.214033126831055
      ],
      "type": "VEC3"
    },
    {
      "bufferView": 2,
      "byteOffset": 72,
      "componentType": 5126,
      "count": 6,
      "max": [
        0.8182958960533142,
        -0.5699669122695923,
        0.2541239261627197
      ],
      "min": [
        0.3425910770893097,
        -0.9380762577056885,
        -0.28554701805114746
      ],
      "type": "VEC3"
    },
    {
      "bufferView": 1,
      "componentType": 5126,
      "count": 6,
      "max": [
        0.6562680006027222,
        0.1679839938879013
      ],
      "min": [
        0.619500994682312,
        0.1312199980020523
      ],
      "type": "VEC2"
    },
    {
      "bufferView": 0,
      "componentType": 5125,
      "count": 15,
      "type": "SCALAR"
    },
    {
      "bufferView": 2,
      "byteOffset": 144,
      "componentType": 5126,
      "count": 358,
      "max": [
        7.581974029541016,
        12.350329399108887,
        17.02643585205078
      ],
      "min": [
        -10.838448524475098,
        -6.5375871658325195,
        -0.10834799706935883
      ],
      "type": "VEC3"
    },
    {
      "bufferView": 2,
      "byteOffset": 4440,
      "componentType": 5126,
      "count": 358,
      "max": [
        0.9828742146492004,
        0.9914761185646057,
        0.9941147565841675
      ],
      "min": [
        -0.9981178641319275,
        -0.9862378835678101,
        -0.9995031356811523
      ],
      "type": "VEC3"
    },
    {
      "bufferView": 1,
      "byteOffset": 48,
      "componentType": 5126,
      "count": 358,
      "max": [
        0.6557660102844238,
        0.972445011138916
      ],
      "min": [
        0.007342999801039696,
        0.0066200001165270805
      ],
      "type": "VEC2"
    },
    {
      "bufferView": 0,
      "byteOffset": 60,
      "componentType": 5125,
      "count": 1458,
      "type": "SCALAR"
    },
    {
      "bufferView": 2,
      "byteOffset": 8736,
      "componentType": 5126,
      "count": 12,
      "max": [
        5.588706016540527,
        -1.9156160354614258,
        14.854249954223633
      ],
      "min": [
        2.956234931945801,
        -5.048688888549805,
        12.566306114196777
      ],
      "type": "VEC3"
    },
    {
      "bufferView": 2,
      "byteOffset": 8880,
      "componentType": 5126,
      "count": 12,
      "max": [
        0.9782374501228333,
        0.6974912285804749,
        0.6052349805831909
      ],
      "min": [
        -0.38359901309013367,
        -0.9634182453155518,
        -0.8340948224067688
      ],
      "type": "VEC3"
    },
    {
      "bufferView": 1,
      "byteOffset": 2912,
      "componentType": 5126,
      "count": 12,
      "max": [
        0.9681519865989685,
        0.9753220081329346
      ],
      "min": [
        0.7290430068969727,
        0.8433719873428345
      ],
      "type": "VEC2"
    },
    {
      "bufferView": 0,
      "byteOffset": 5892,
      "componentType": 5125,
      "count": 30,
      "type": "SCALAR"
    },
    {
      "bufferView": 2,
      "byteOffset": 9024,
      "componentType": 5126,
      "count": 16,
      "max": [
        5.204367160797119,
        -4.059946060180664,
        12.409065246582031
      ],
      "min": [
        4.532054901123047,
        -4.858631134033203,
        11.94873046875
      ],
      "type": "VEC3"
    },
    {
      "bufferView": 2,
      "byteOffset": 9216,
      "componentType": 5126,
      "count": 16,
      "max": [
        0.7903338670730591,
        0.8238074779510498,
        0.8611101508140564
      ],
      "min": [
        -0.5041941404342651,
        -0.9049927592277527,
        -0.5991779565811157
      ],
      "type": "VEC3"
    },
    {
      "bufferView": 1,
      "byteOffset": 3008,
      "componentType": 5126,
      "count": 16,
      "max": [
        0.3899959921836853,
        0.1874369978904724
      ],
      "min": [
        0.35383400321006775,
        0.15127499401569366
      ],
      "type": "VEC2"
    },
    {
      "bufferView": 0,
      "byteOffset": 6012,
      "componentType": 5125,
      "count": 18,
      "type": "SCALAR"
    },
    {
      "bufferView": 2,
      "byteOffset": 9408,
      "componentType": 5126,
      "count": 1115,
      "max": [
        8.399462699890137,
        8.572720527648926,
        18.30158805847168
      ],
      "min": [
        -8.360655784606934,
        -7.335713863372803,
        -0.19769200682640076
      ],
      "type": "VEC3"
    },
    {
      "bufferView": 2,
      "byteOffset": 22788,
      "componentType": 5126,
      "count": 1115,
      "max": [
        0.999758780002594,
        0.9967893362045288,
        0.9997283816337585
      ],
      "min": [
        -0.9983694553375244,
        -0.9912580251693726,
        -0.9999814629554749
      ],
      "type": "VEC3"
    },
    {
      "bufferView": 1,
      "byteOffset": 3136,
      "componentType": 5126,
      "count": 1115,
      "max": [
        0.8408640027046204,
        0.9861930012702942
      ],
      "min": [
        0.02084900066256523,
        0.030401000753045082
      ],
      "type": "VEC2"
    },
    {
      "bufferView": 0,
      "byteOffset": 6084,
      "componentType": 5125,
      "count": 2364,
      "type": "SCALAR"
    }
  ],
  "asset": {
    "extras": {
      "author": "Forsaken AR Official (https://sketchfab.com/FNAF_AR_Official)",
      "license": "CC-BY-4.0 (http://creativecommons.org/licenses/by/4.0/)",
      "source": "https://sketchfab.com/3d-models/wii-super-smash-bros-brawl-dialga-trophy-50f1b4eb090a496ba40c4ff2c3edc2ec",
      "title": "Wii - Super Smash Bros Brawl - Dialga Trophy"
    },
    "generator": "Sketchfab-16.12.0",
    "version": "2.0"
  },
  "bufferViews": [
    {
      "buffer": 0,
      "byteLength": 15540,
      "name": "floatBufferViews",
      "target": 34963
    },
    {
      "buffer": 0,
      "byteLength": 12056,
      "byteOffset": 15540,
      "byteStride": 8,
      "name": "floatBufferViews",
      "target": 34962
    },
    {
      "buffer": 0,
      "byteLength": 36168,
      "byteOffset": 27596,
      "byteStride": 12,
      "name": "floatBufferViews",
      "target": 34962
    }
  ],
  "buffers": [
    {
      "byteLength": 63764,
      "uri": "scene.bin"
    }
  ],
  "images": [
    {
      "uri": "textures/mat1_baseColor.png"
    },
    {
      "uri": "textures/mat2_baseColor.png"
    }
  ],
  "materials": [
    {
      "doubleSided": true,
      "name": "mat1",
      "pbrMetallicRoughness": {
        "baseColorTexture": {
          "index": 0
        },
        "metallicFactor": 0.0
      }
    },
    {
      "doubleSided": true,
      "name": "mat2",
      "pbrMetallicRoughness": {
        "baseColorTexture": {
          "index": 1
        },
        "metallicFactor": 0.0
      }
    },
    {
      "doubleSided": true,
      "name": "mat3",
      "pbrMetallicRoughness": {
        "baseColorTexture": {
          "index": 1
        },
        "metallicFactor": 0.0
      }
    },
    {
      "doubleSided": true,
      "name": "mat4",
      "pbrMetallicRoughness": {
        "baseColorTexture": {
          "index": 1
        },
        "metallicFactor": 0.0
      }
    },
    {
      "doubleSided": true,
      "name": "mat5",
      "pbrMetallicRoughness": {
        "baseColorTexture": {
          "index": 1
        },
        "metallicFactor": 0.0
      }
    }
  ],
  "meshes": [
    {
      "name": "Object_0",
      "primitives": [
        {
          "attributes": {
            "NORMAL": 1,
            "POSITION": 0,
            "TEXCOORD_0": 2
          },
          "indices": 3,
          "material": 0,
          "mode": 4
        }
      ]
    },
    {
      "name": "Object_1",
      "primitives": [
        {
          "attributes": {
            "NORMAL": 5,
            "POSITION": 4,
            "TEXCOORD_0": 6
          },
          "indices": 7,
          "material": 2,
          "mode": 4
        }
      ]
    },
    {
      "name": "Object_2",
      "primitives": [
        {
          "attributes": {
            "NORMAL": 9,
            "POSITION": 8,
            "TEXCOORD_0": 10
          },
          "indices": 11,
          "material": 3,
          "mode": 4
        }
      ]
    },
    {
      "name": "Object_3",
      "primitives": [
        {
          "attributes": {
            "NORMAL": 13,
            "POSITION": 12,
            "TEXCOORD_0": 14
          },
          "indices": 15,
          "material": 4,
          "mode": 4
        }
      ]
    },
    {
      "name": "Object_4",
      "primitives": [
        {
          "attributes": {
            "NORMAL": 17,
            "POSITION": 16,
            "TEXCOORD_0": 18
          },
          "indices": 19,
          "material": 1,
          "mode": 4
        }
      ]
    }
  ],
  "nodes": [
    {
      "children": [
        1
      ],
      "matrix": [
        1.0,
        0.0,
        0.0,
        0.0,
        0.0,
        2.220446049250313e-16,
        -1.0,
        0.0,
        0.0,
        1.0,
        2.220446049250313e-16,
        0.0,
        0.0,
        0.0,
        0.0,
        1.0
      ],
      "name": "Sketchfab_model"
    },
    {
      "children": [
        2,
        3,
        4,
        5,
        6
      ],
      "name": "Dialga.obj.cleaner.materialmerger.gles"
    },
    {
      "mesh": 0,
      "name": "Object_2"
    },
    {
      "mesh": 1,
      "name": "Object_3"
    },
    {
      "mesh": 2,
      "name": "Object_4"
    },
    {
      "mesh": 3,
      "name": "Object_5"
    },
    {
      "mesh": 4,
      "name": "Object_6"
    }
  ],
  "samplers": [
    {
      "magFilter": 9729,
      "minFilter": 9987,
      "wrapS": 10497,
      "wrapT": 10497
    }
  ],
  "scene": 0,
  "scenes": [
    {
      "name": "Sketchfab_Scene",
      "nodes": [
        0
      ]
    }
  ],
  "textures": [
    {
      "sampler": 0,
      "source": 0
    },
    {
      "sampler": 0,
      "source": 1
    }
  ]
}
