{
  "accessors": [
    {
      "bufferView": 2,
      "componentType": 5126,
      "count": 4690,
      "max": [
        0.49146899580955505,
        0.452564001083374,
        0.9085749983787537
      ],
      "min": [
        -0.42159000039100647,
        -0.41834700107574463,
        0.09261800348758698
      ],
      "type": "VEC3"
    },
    {
      "bufferView": 2,
      "byteOffset": 56280,
      "componentType": 5126,
      "count": 4690,
      "max": [
        0.9995922446250916,
        0.9991098046302795,
        0.9998112320899963
      ],
      "min": [
        -0.9992320537567139,
        -0.9999349117279053,
        -0.9999139308929443
      ],
      "type": "VEC3"
    },
    {
      "bufferView": 1,
      "componentType": 5126,
      "count": 4690,
      "max": [
        0.9966869950294495,
        0.9959489703178406
      ],
      "min": [
        0.0033130000811070204,
        0.002911000046879053
      ],
      "type": "VEC2"
    },
    {
      "bufferView": 0,
      "componentType": 5125,
      "count": 21984,
      "type": "SCALAR"
    },
    {
      "bufferView": 2,
      "byteOffset": 112560,
      "componentType": 5126,
      "count": 629,
      "max": [
        0.49553000926971436,
        0.4928160011768341,
        0.28414401412010193
      ],
      "min": [
        -0.4847019910812378,
        -0.4928149878978729,
        0.0
      ],
      "type": "VEC3"
    },
    {
      "bufferView": 2,
      "byteOffset": 120108,
      "componentType": 5126,
      "count": 629,
      "max": [
        0.9971944093704224,
        0.9951903820037842,
        0.9995765089988708
      ],
      "min": [
        -0.9877353310585022,
        -0.9932527542114258,
        -1.0
      ],
      "type": "VEC3"
    },
    {
      "bufferView": 1,
      "byteOffset": 37520,
      "componentType": 5126,
      "count": 629,
      "max": [
        0.9934870004653931,
        0.9919090270996094
      ],
      "min": [
        0.012950999662280083,
        0.008923999965190887
      ],
      "type": "VEC2"
    },
    {
      "bufferView": 0,
      "byteOffset": 87936,
      "componentType": 5125,
      "count": 2856,
      "type": "SCALAR"
    }
  ],
  "asset": {
    "extras": {
      "author": "Forsaken AR Official (https://sketchfab.com/FNAF_AR_Official)",
      "license": "CC-BY-4.0 (http://creativecommons.org/licenses/by/4.0/)",
      "source": "https://sketchfab.com/3d-models/mobile-pokemon-duel-006-charizard-0219734618794d20be333a44b2a02361",
      "title": "Mobile - Pokemon Duel - 006 - Charizard"
    },
    "generator": "Sketchfab-16.12.0",
    "version": "2.0"
  },
  "bufferViews": [
    {
      "buffer": 0,
      "byteLength": 99360,
      "name": "floatBufferViews",
      "target": 34963
    },
    {
      "buffer": 0,
      "byteLength": 42552,
      "byteOffset": 99360,
      "byteStride": 8,
      "name": "floatBufferViews",
      "target": 34962
    },
    {
      "buffer": 0,
      "byteLength": 127656,
      "byteOffset": 141912,
      "byteStride": 12,
      "name": "floatBufferViews",
      "target": 34962
    }
  ],
  "buffers": [
    {
      "byteLength": 269568,
      "uri": "scene.bin"
    }
  ],
  "images": [
    {
      "uri": "textures/Material.001_baseColor.png"
    },
    {
      "uri": "textures/Material.002_baseColor.png"
    }
  ],
  "materials": [
    {
      "doubleSided": true,
      "name": "Material.001",
      "pbrMetallicRoughness": {
        "baseColorTexture": {
          "index": 0
        },
        "metallicFactor": 0.0,
        "roughnessFactor": 0.8451479492658763
      }
    },
    {
      "alphaMode": "BLEND",
      "doubleSided": true,
      "name": "Material.002",
      "pbrMetallicRoughness": {
        "baseColorFactor": [
          1.0,
          1.0,
          1.0,
          0.0
        ],
        "baseColorTexture": {
          "index": 1
        },
        "metallicFactor": 0.0,
        "roughnessFactor": 0.8451479492658763
      }
    }
  ],
  "meshes": [
    {
      "name": "Object_0",
      "primitives": [
        {
          "attributes": {
            "NORMAL": 1,
            "POSITION": 0,
            "TEXCOORD_0": 2
          },
          "indices": 3,
          "material": 0,
          "mode": 4
        }
      ]
    },
    {
      "name": "Object_1",
      "primitives": [
        {
          "attributes": {
            "NORMAL": 5,
            "POSITION": 4,
            "TEXCOORD_0": 6
          },
          "indices": 7,
          "material": 1,
          "mode": 4
        }
      ]
    }
  ],
  "nodes": [
    {
      "children": [
        1
      ],
      "matrix": [
        1.0,
        0.0,
        0.0,
        0.0,
        0.0,
        2.220446049250313e-16,
        -1.0,
        0.0,
        0.0,
        1.0,
        2.220446049250313e-16,
        0.0,
        0.0,
        0.0,
        0.0,
        1.0
      ],
      "name": "Sketchfab_model"
    },
    {
      "children": [
        2,
        3
      ],
      "name": "Charizard.obj.cleaner.materialmerger.gles"
    },
    {
      "mesh": 0,
      "name": "Object_2"
    },
    {
      "mesh": 1,
      "name": "Object_3"
    }
  ],
  "samplers": [
    {
      "magFilter": 9729,
      "minFilter": 9987,
      "wrapS": 10497,
      "wrapT": 10497
    }
  ],
  "scene": 0,
  "scenes": [
    {
      "name": "Sketchfab_Scene",
      "nodes": [
        0
      ]
    }
  ],
  "textures": [
    {
      "sampler": 0,
      "source": 0
    },
    {
      "sampler": 0,
      "source": 1
    }
  ]
}
